<?xml version="1.0" standalone="no"?>
<!DOCTYPE svg PUBLIC "-//W3C//DTD SVG 20010904//EN"
 "http://www.w3.org/TR/2001/REC-SVG-20010904/DTD/svg10.dtd">
<svg version="1.0" xmlns="http://www.w3.org/2000/svg"
 width="163.000000pt" height="163.000000pt" viewBox="0 0 163.000000 163.000000"
 preserveAspectRatio="xMidYMid meet">
<metadata>
Created by potrace 1.11, written by Peter Selinger 2001-2013
</metadata>
<g transform="translate(0.000000,163.000000) scale(0.100000,-0.100000)"
fill="#000000" stroke="none">
<path d="M47 1403 c-3 -5 -8 -44 -11 -88 -4 -44 -9 -96 -11 -115 -3 -19 -7
-71 -10 -115 -4 -44 -8 -96 -11 -116 -6 -46 6 -73 53 -126 37 -41 41 -43 108
-47 106 -7 228 -18 250 -21 11 -2 33 -4 48 -4 l29 -1 -7 -57 c-3 -32 -7 -78
-9 -103 -2 -25 -7 -81 -11 -125 -4 -44 -8 -87 -9 -96 -1 -9 19 -42 44 -73 36
-45 51 -56 75 -57 16 0 37 -2 45 -3 8 -2 53 -6 100 -10 47 -4 117 -10 155 -13
39 -4 92 -7 119 -7 55 -1 50 -11 61 116 4 46 8 99 10 118 2 19 6 76 10 125 4
50 9 97 11 105 1 8 3 18 3 22 1 4 10 5 21 3 11 -2 57 -7 103 -10 45 -4 98 -8
117 -10 19 -2 76 -7 125 -10 50 -4 92 -9 94 -11 2 -2 11 2 19 9 13 10 14 9 7
-3 -5 -10 -5 -12 3 -5 5 6 13 48 17 95 9 126 22 280 30 351 5 44 2 50 -41 103
-29 34 -55 56 -68 57 -11 0 -30 2 -41 3 -11 2 -58 6 -105 10 -47 4 -103 9
-125 11 -22 2 -74 6 -115 10 -41 3 -91 8 -110 10 -19 2 -75 7 -125 10 -49 4
-101 8 -115 10 -14 2 -59 6 -100 10 -41 3 -93 8 -115 10 -22 2 -76 6 -120 10
-44 3 -98 8 -120 10 -22 2 -71 7 -110 10 -38 3 -91 8 -117 11 -26 2 -49 1 -51
-3z m1448 -613 c-3 -5 -12 -10 -18 -10 -7 0 -6 4 3 10 19 12 23 12 15 0z"/>
</g>
</svg>
